<svg width="220" height="220" xmlns="http://www.w3.org/2000/svg" xmlns:xlink="http://www.w3.org/1999/xlink" xml:space="preserve" overflow="hidden"><defs><clipPath id="clip0"><rect x="498" y="14" width="220" height="220"/></clipPath></defs><g clip-path="url(#clip0)" transform="translate(-498 -14)"><path d="M685.775 46.2251C664.99 25.44 637.373 14.0001 607.984 14.0001 578.627 14.0001 550.978 25.44 530.225 46.2251 509.44 66.978 498 94.627 498 123.984 498 153.373 509.44 180.99 530.225 201.775 550.978 222.56 578.627 234 607.984 234 637.373 234 664.99 222.56 685.775 201.775 706.56 180.99 718 153.373 718 123.984 718 94.627 706.56 66.978 685.775 46.2251ZM576.21 29.0492C571.602 33.8507 567.316 39.7479 563.481 46.6762 560.774 44.2594 558.132 41.6169 555.554 38.7811 561.999 34.7852 568.927 31.4983 576.21 29.0492ZM547.337 44.4205C551.075 48.642 554.942 52.4445 558.938 55.8281 553.878 67.2358 550.172 80.2225 547.981 94.0792 535.993 89.8255 526.423 84.0894 519.784 76.9677 519.752 76.9355 519.72 76.9033 519.688 76.8711 526.487 64.1744 535.961 53.1212 547.337 44.4205ZM507.893 123.984C507.893 110.707 510.503 98.0107 515.24 86.3774 523.78 94.4981 534.769 100.202 546.692 104.198 546.048 110.643 545.693 117.281 545.693 123.984 545.693 130.719 546.048 137.325 546.692 143.802 534.737 147.798 523.78 153.502 515.24 161.591 510.503 149.99 507.893 137.293 507.893 123.984ZM547.337 203.58C535.961 194.879 526.487 183.826 519.688 171.129 519.72 171.097 519.752 171.065 519.784 171.032 526.423 163.911 535.993 158.142 548.013 153.889 550.172 167.778 553.878 180.764 558.938 192.14 554.942 195.523 551.075 199.358 547.337 203.58ZM555.522 209.219C558.132 206.351 560.774 203.709 563.481 201.292 567.316 208.22 571.602 214.117 576.21 218.919 568.927 216.47 561.999 213.215 555.522 209.219ZM603.054 223.656C591.453 221.497 580.496 211.829 571.795 195.91 571.634 195.62 571.473 195.33 571.312 195.04 581.431 187.886 592.129 183.697 603.054 182.762L603.054 223.656ZM603.054 172.837C590.55 173.772 578.401 178.219 567.026 185.985 562.611 175.512 559.421 163.653 557.552 150.989 570.571 147.54 585.91 145.607 603.054 145.317L603.054 172.837ZM603.054 135.424C588.423 135.649 571.924 137.1 556.36 140.999 555.844 135.424 555.586 129.752 555.586 123.984 555.586 118.248 555.844 112.544 556.36 107.001 571.924 110.901 588.423 112.319 603.054 112.576L603.054 135.424ZM603.054 102.683C585.91 102.361 570.571 100.46 557.552 97.0117 559.421 84.3473 562.611 72.4885 567.026 62.0153 578.401 69.7816 590.55 74.2286 603.054 75.1631L603.054 102.683ZM603.054 65.2378C592.129 64.2711 581.431 60.1141 571.312 52.9601 571.473 52.6701 571.634 52.3801 571.795 52.09 580.496 36.1387 591.453 26.4712 603.054 24.3443L603.054 65.2378ZM668.664 44.4205C680.039 53.1212 689.481 64.1744 696.28 76.8711 696.248 76.9033 696.216 76.9355 696.184 76.9677 689.545 84.0894 680.007 89.8255 667.987 94.0792 665.828 80.2225 662.122 67.2358 657.063 55.8281 661.026 52.4445 664.926 48.642 668.664 44.4205ZM660.446 38.7811C657.868 41.6169 655.226 44.2594 652.519 46.6762 648.684 39.7479 644.398 33.8507 639.758 29.0492 647.073 31.4983 654.001 34.7852 660.446 38.7811ZM612.947 24.3443C624.548 26.4712 635.504 36.1387 644.205 52.09 644.366 52.3801 644.495 52.6701 644.656 52.9601 634.57 60.1141 623.871 64.2711 612.947 65.2378L612.947 24.3443ZM648.974 62.0153C653.357 72.4885 656.579 84.3473 658.448 97.0117 645.397 100.46 630.09 102.361 612.947 102.683L612.947 75.1631 612.947 75.1631C625.45 74.2286 637.567 69.7816 648.974 62.0153ZM612.947 112.576C627.577 112.319 644.076 110.901 659.641 107.001 660.124 112.544 660.382 118.248 660.382 123.984 660.382 129.752 660.124 135.424 659.641 140.999 644.076 137.1 627.577 135.649 612.947 135.424L612.947 112.576ZM612.947 145.317C630.09 145.607 645.397 147.54 658.448 150.989 656.579 163.653 653.357 175.512 648.974 185.985 637.567 178.219 625.45 173.772 612.947 172.837L612.947 145.317ZM612.947 223.656 612.947 182.762C623.871 183.697 634.57 187.886 644.656 195.04 644.527 195.33 644.366 195.62 644.205 195.91 635.504 211.829 624.548 221.497 612.947 223.656ZM639.758 218.919C644.398 214.117 648.652 208.22 652.519 201.292 655.226 203.709 657.868 206.351 660.446 209.219 654.001 213.215 647.073 216.47 639.758 218.919ZM668.664 203.58C664.926 199.358 661.059 195.523 657.063 192.14 662.122 180.764 665.828 167.778 667.987 153.889 680.007 158.142 689.545 163.911 696.184 171.032 696.216 171.065 696.248 171.097 696.28 171.129 689.481 183.826 680.039 194.879 668.664 203.58ZM669.276 143.802C669.953 137.325 670.275 130.719 670.275 123.984 670.275 117.281 669.953 110.643 669.276 104.198 681.231 100.202 692.188 94.4981 700.76 86.3774 705.497 98.0107 708.107 110.707 708.107 123.984 708.107 137.293 705.497 149.99 700.76 161.591 692.188 153.502 681.231 147.798 669.276 143.802Z" fill="#4472C4" fill-rule="evenodd"/></g></svg>